<svg id="Capa_1" enable-background="new 0 0 496.755 496.755" height="512" viewBox="0 0 496.755 496.755" width="512" xmlns="http://www.w3.org/2000/svg"><g><g><path d="m311.948 272.315-5.52-23.76-15.679-63.806h-84.45l-15.972 63.806-5.52 23.76-20.733 74.643h167.682z" fill="#ffcebf"/></g><path d="m244.338 494.585-30.508-194.592-29.023-27.678-53.38 32.73c-26.38 14.01-42.87 41.43-42.87 71.3v110.712c0 5.356 4.342 9.698 9.698 9.698h149.432z" fill="#918291"/><path d="m365.328 305.045-53.38-32.73-26.917 60.84-36.654 144.231.91 19.368h.17 149.042c5.356 0 9.698-4.342 9.698-9.698v-110.711c.001-29.87-16.489-57.29-42.869-71.3z" fill="#918291"/><g><path d="m310.782 277.786-1.394 1.679-61.01 38.52-59.77-37.74-6.48 7.45.048.661-11.251 14.187-9.773 57.578 63.659 120.889 22.877 15.745h1.6l92.603-169.948z" fill="#e5e1e5"/></g><g><path d="m290.749 184.749h-84.45l-15.972 63.806-4.623 19.9c19.102 8.747 40.327 13.631 62.674 13.631s43.572-4.884 62.674-13.631l-4.623-19.9z" fill="#ffb09e"/><circle cx="248.378" cy="131.043" fill="#99e6fc" r="131.043"/><path d="m164.074 131.043c0-64.396 46.463-117.946 107.686-128.968-7.583-1.365-15.406-2.075-23.382-2.075-72.373 0-131.043 58.67-131.043 131.042s58.67 131.042 131.043 131.042c7.977 0 15.799-.71 23.382-2.075-61.223-11.02-107.686-64.57-107.686-128.966z" fill="#62dbfb"/><path d="m182.461 192.374h17.608l8.172 4.824c3.144 1.856 6.728 2.834 10.379 2.834h59.329 19.582c7.118 0 13.243-5.47 13.578-12.581.247-5.255-2.577-9.87-6.831-12.215-.296-.163-.487-.468-.487-.806v-.026c0-.423.291-.793.704-.884 5.931-1.303 10.369-6.586 10.369-12.908 0-3.869-1.663-7.35-4.313-9.768 5.326-2.055 9.106-7.219 9.106-13.269 0-4.769-2.35-8.986-5.952-11.566 5.023-2.512 8.475-7.701 8.475-13.699 0-8.456-6.855-15.311-15.31-15.311h-31.575c-2.235 0-3.721-2.312-2.792-4.345l3.747-8.204c2.174-4.76 3.3-9.932 3.3-15.165v-17.061c0-3.056-.743-6.076-2.177-8.795-2.673-5.068-8.07-8.11-13.799-8.11-4.333 0-8.248 2.587-9.947 6.573l-6.591 15.465-24.82 14.451-4.069 1.729c-5.594 2.377-10.124 6.722-12.732 12.212l-5.345 11.251h-17.608c-5.331 0-9.653 4.322-9.653 9.653v76.068c-.001 5.332 4.321 9.653 9.652 9.653z" fill="#f9f7f8"/><path d="m98.754 343.263 37.188 29.125 4.942 3.992c.376-5.844 1.164-11.633 2.358-17.327l-35.272-27.624-3.727-2.885c-2.988 4.066-5.59 8.403-7.769 12.954z" fill="#7a6d79"/><path d="m148.111 495.752v-48.996c0-4.143-3.358-7.5-7.5-7.5s-7.5 3.357-7.5 7.5v48.996c0 .341.031.675.075 1.004h14.85c.044-.33.075-.663.075-1.004z" fill="#7a6d79"/><g><path d="m274.307 456.993-7.006-82.317-5.8-28.871h-27.78l-4.267 28.871-7.005 82.317v39.762h55.859z" fill="#918291"/></g><g id="XMLID_548_"><g><path d="m276.144 350.419c1.404 2.66 1.912 5.702 1.446 8.673l-1.683 10.733c-.35 2.19-2.23 3.8-4.44 3.8h-47.94c-2.22 0-4.1-1.61-4.44-3.8l-1.664-10.572c-.483-3.07.073-6.214 1.58-8.933l13.084-23.595c5.42-2.72 10.85-5.63 16.29-8.74 4.97 2.84 9.93 5.52 14.88 8.03z" fill="#7a6d79"/></g></g><g id="XMLID_549_"><g><path d="m229.468 466.025 17.615 30.73-2.745-2.17c-30.8-19.28-56.96-45.12-76.63-75.67l-7.76-12.05-16.68 4.24c-1.35.34-2.66-.68-2.66-2.07v-24.76c0-25.86 8.15-51.05 23.29-72.01l15.39-21.29 2.84-3.28 4.19 57.42 1.78 8.96c7.78 39.27 21.75 77.06 41.37 111.95z" fill="#a79ba7"/><path d="m392.522 328.556-3.77 2.899-37.15 29.095-45.351 33.503c-3.332 2.461-4.037 7.157-1.576 10.488 1.471 1.991 3.739 3.044 6.038 3.044 1.548 0 3.11-.478 4.451-1.468l45.436-33.565c.057-.042.112-.084.168-.128l37.18-29.119 2.338-1.798c-2.177-4.551-4.778-8.886-7.764-12.951z" fill="#7a6d79"/><path d="m352.662 385.275v24.76c0 1.39-1.31 2.41-2.66 2.07l-16.68-4.24-7.76 12.05c-19.67 30.55-45.83 56.39-76.63 75.67l-1.85 1.17 16.72-29.73c19.62-34.89 33.59-72.68 41.37-111.95l1.78-8.96 4.16-70.619 25.281 39.344c15.14 20.96 16.269 44.575 16.269 70.435z" fill="#a79ba7"/></g></g><path d="m363.644 495.752v-48.996c0-4.143-3.358-7.5-7.5-7.5s-7.5 3.357-7.5 7.5v48.996c0 .341.031.675.075 1.004h14.85c.045-.33.075-.663.075-1.004z" fill="#7a6d79"/></g><g fill="#f9f7f8"><path d="m184.808 272.315 63.57 45.67c-5.44 3.11-10.87 6.02-16.29 8.74-16.468 8.267-32.875 14.757-49.21 19.403-1.53.435-3.079-.674-3.167-2.262-1.312-23.85.39-47.7 5.097-71.551z"/><path d="m311.948 272.315c4.707 23.85 6.409 47.7 5.097 71.55-.087 1.588-1.638 2.698-3.168 2.262-16.796-4.781-33.672-11.501-50.619-20.112-4.95-2.51-9.91-5.19-14.88-8.03z"/></g></g></svg>